<svg xmlns="http://www.w3.org/2000/svg" viewBox="1606 623.984 20.223 25.316"><defs><style>.a{fill:#fff;}</style></defs><path class="a" d="M6.04,6.787A10.679,10.679,0,0,1,7.262,4,12.984,12.984,0,0,1,9.095,1.832,16.574,16.574,0,0,1,10.588.475c.271-.2.543-.339.679-.475a17.123,17.123,0,0,0-1.018,5.226,7.228,7.228,0,0,0,.882,3.6,5.223,5.223,0,0,0,2.443,2.036c.271.068.475.136.679.2.95.068,1.154-.95.679-3.122a14.857,14.857,0,0,0-.882-2.647,14.472,14.472,0,0,1,5.022,5.7,9.956,9.956,0,0,1,.882,6.923A10.119,10.119,0,0,1,19,20.429a8.034,8.034,0,0,1-1.357,1.833,7.419,7.419,0,0,1-1.765,1.29,10.505,10.505,0,0,1-1.765.882c-.475.2-1.086.407-1.833.679a4.671,4.671,0,0,1-.882.136c-.271,0-.475.068-.611.068a.5.5,0,0,1-.407-.136l-.2-.2c-.068-.068-.068-.136-.068-.339,0-.136.068-.271.068-.407a.9.9,0,0,1,.2-.475,4.03,4.03,0,0,1,.271-.543c.068-.136.136-.339.271-.611.271-.611.543-1.154.747-1.629a5.634,5.634,0,0,0,.407-1.425,5.834,5.834,0,0,0-.543-3.733,13.836,13.836,0,0,0-2.511-3.326,7.708,7.708,0,0,1,.271,3.19,8.7,8.7,0,0,1-.814,3.733,10.981,10.981,0,0,1-.679,1.222,14.907,14.907,0,0,1-.95,1.222A7.758,7.758,0,0,1,5.7,22.872a2.975,2.975,0,0,1-1.29.475,1.78,1.78,0,0,1-1.29-.339A6.214,6.214,0,0,1,.95,20.768a8.249,8.249,0,0,1-.882-2.443A4.52,4.52,0,0,1,0,17.239c0-.475.068-1.018.136-1.765A6.136,6.136,0,0,1,.95,13.3a7.978,7.978,0,0,1,1.7-2.036,2.682,2.682,0,0,0-.2,1.493,5.764,5.764,0,0,0,.339,1.629A1.977,1.977,0,0,0,3.6,15.61a1.389,1.389,0,0,0,1.357.271,1.279,1.279,0,0,0,.611-.271,1.152,1.152,0,0,0,.407-.407,1.7,1.7,0,0,0,.271-.475,1.355,1.355,0,0,0,.136-.611v-.679a3.9,3.9,0,0,0-.068-.814c-.068-.339-.068-.611-.136-.814a7.129,7.129,0,0,0-.136-.882c-.068-.407-.136-.679-.136-.814A6.94,6.94,0,0,1,6.04,6.787Z" transform="translate(1606 623.984)"/></svg>