<svg xmlns="http://www.w3.org/2000/svg" viewBox="1608 508.825 19.975 19.975"><defs><style>.a{fill:#fff;}</style></defs><path class="a" d="M4.966,1.339A9.665,9.665,0,0,1,9.988,0a9.958,9.958,0,0,1,5.022,1.339,10.265,10.265,0,0,1,3.627,3.627,9.665,9.665,0,0,1,1.339,5.022,9.81,9.81,0,0,1-1.339,5.022,10.265,10.265,0,0,1-3.627,3.627,9.665,9.665,0,0,1-5.022,1.339,9.958,9.958,0,0,1-5.022-1.339,10.265,10.265,0,0,1-3.627-3.627A9.665,9.665,0,0,1,0,9.988,9.81,9.81,0,0,1,1.339,4.966,10.265,10.265,0,0,1,4.966,1.339ZM14.9,5.077a6.739,6.739,0,0,0-4.91-2.009,6.83,6.83,0,0,0-4.91,2.009,6.739,6.739,0,0,0-2.009,4.91A6.83,6.83,0,0,0,5.077,14.9a6.739,6.739,0,0,0,4.91,2.009A6.83,6.83,0,0,0,14.9,14.9a6.739,6.739,0,0,0,2.009-4.91A6.739,6.739,0,0,0,14.9,5.077ZM7.7,7.7a3.233,3.233,0,0,1,4.575,0,3.233,3.233,0,0,1,0,4.575,3.233,3.233,0,0,1-4.575,0,3.16,3.16,0,0,1-.949-2.288A2.954,2.954,0,0,1,7.7,7.7Z" transform="translate(1608 508.825)"/></svg>