<svg xmlns="http://www.w3.org/2000/svg" viewBox="1610 269 20 20"><defs><style>.a{fill:#fff;}</style></defs><path class="a" d="M9.091.909V8.182a.911.911,0,0,1-.242.667.828.828,0,0,1-.667.242H.909a.911.911,0,0,1-.667-.242A.911.911,0,0,1,0,8.182V.909A.911.911,0,0,1,.242.242.911.911,0,0,1,.909,0H8.182a.911.911,0,0,1,.667.242A.911.911,0,0,1,9.091.909Zm0,10.909v7.273a.911.911,0,0,1-.242.667A.828.828,0,0,1,8.182,20H.909a.911.911,0,0,1-.667-.242A.911.911,0,0,1,0,19.091V11.818a.911.911,0,0,1,.242-.667.911.911,0,0,1,.667-.242H8.182a.839.839,0,0,1,.909.909ZM20,.909V8.182a.911.911,0,0,1-.242.667.828.828,0,0,1-.667.242H11.818a.911.911,0,0,1-.667-.242.828.828,0,0,1-.242-.667V.909a.911.911,0,0,1,.242-.667A.911.911,0,0,1,11.818,0h7.273a.911.911,0,0,1,.667.242A.911.911,0,0,1,20,.909Zm0,10.909v7.273a.911.911,0,0,1-.242.667.828.828,0,0,1-.667.242H11.818a.911.911,0,0,1-.667-.242.828.828,0,0,1-.242-.667V11.818a.911.911,0,0,1,.242-.667.828.828,0,0,1,.667-.242h7.273a.839.839,0,0,1,.909.909Z" transform="translate(1610 269)"/></svg>