<svg xmlns="http://www.w3.org/2000/svg" viewBox="1610 328 21 21.394"><defs><style>.a{fill:#fff;}</style></defs><path class="a" d="M18.407,0h1.664a.689.689,0,0,1,.594.238.851.851,0,0,1,.3.654.851.851,0,0,1-.3.654.851.851,0,0,1-.594.238H19.12L15.555,18.9c0,.059-.059.119-.119.178a2.263,2.263,0,0,1-.357.3,1,1,0,0,1-.594.178H13.95v.891a.689.689,0,0,1-.238.594.821.821,0,0,1-.654.357.954.954,0,0,1-.654-.3.763.763,0,0,1-.238-.594v-.891H6.819V20.5a.689.689,0,0,1-.238.594.954.954,0,0,1-.654.3.954.954,0,0,1-.654-.3.763.763,0,0,1-.238-.594v-.891H4.145a.954.954,0,0,1-.654-.3.763.763,0,0,1-.238-.594.894.894,0,0,1,.238-.654.894.894,0,0,1,.654-.238h9.508l.832-3.566H3.194a1.35,1.35,0,0,1-.951-.357,1.824,1.824,0,0,1-.475-.773l-1.783-8.5a.9.9,0,0,1,.178-.773.984.984,0,0,1,.713-.3H16.862L17.516.654a.924.924,0,0,1,.357-.475A.959.959,0,0,1,18.407,0Z" transform="translate(1610.038 328)"/></svg>