<svg xmlns="http://www.w3.org/2000/svg" viewBox="1608 449 19.975 18.311"><defs><style>.a{fill:#fff;}</style></defs><path class="a" d="M0,2.5V.832A.834.834,0,0,1,.222.222.834.834,0,0,1,.832,0H2.5a.834.834,0,0,1,.61.222.834.834,0,0,1,.222.61V2.5a.643.643,0,0,1-.222.555.707.707,0,0,1-.61.277H.832a.707.707,0,0,1-.61-.277A.712.712,0,0,1,0,2.5ZM0,7.491V5.826a.834.834,0,0,1,.222-.61.834.834,0,0,1,.61-.222H2.5a.834.834,0,0,1,.61.222.834.834,0,0,1,.222.61V7.491a.643.643,0,0,1-.222.555.707.707,0,0,1-.61.277H.832a.707.707,0,0,1-.61-.277A.712.712,0,0,1,0,7.491Zm0,4.994V10.82a.834.834,0,0,1,.222-.61.834.834,0,0,1,.61-.222H2.5a.834.834,0,0,1,.61.222.834.834,0,0,1,.222.61v1.665a.643.643,0,0,1-.222.555.707.707,0,0,1-.61.277H.832a.707.707,0,0,1-.61-.277A.712.712,0,0,1,0,12.484Zm0,4.994V15.814a.834.834,0,0,1,.222-.61.834.834,0,0,1,.61-.222H2.5a.834.834,0,0,1,.61.222.834.834,0,0,1,.222.61v1.665a.643.643,0,0,1-.222.555.707.707,0,0,1-.61.277H.832a.707.707,0,0,1-.61-.277A.712.712,0,0,1,0,17.478ZM4.994,2.5V.832a.834.834,0,0,1,.222-.61A.834.834,0,0,1,5.826,0H19.143a.834.834,0,0,1,.61.222.834.834,0,0,1,.222.61V2.5a.643.643,0,0,1-.222.555.707.707,0,0,1-.61.277H5.826a.707.707,0,0,1-.61-.277A.712.712,0,0,1,4.994,2.5Zm0,4.994V5.826a.768.768,0,0,1,.832-.832H19.143a.834.834,0,0,1,.61.222.758.758,0,0,1,.222.61V7.491a.643.643,0,0,1-.222.555.8.8,0,0,1-.61.277H5.826a.707.707,0,0,1-.61-.277A.712.712,0,0,1,4.994,7.491Zm0,4.994V10.82a.834.834,0,0,1,.222-.61.758.758,0,0,1,.61-.222H19.143a.834.834,0,0,1,.61.222.758.758,0,0,1,.222.61v1.665a.643.643,0,0,1-.222.555.8.8,0,0,1-.61.277H5.826a.707.707,0,0,1-.61-.277A.712.712,0,0,1,4.994,12.484Zm0,4.994V15.814a.834.834,0,0,1,.222-.61.758.758,0,0,1,.61-.222H19.143a.834.834,0,0,1,.61.222.758.758,0,0,1,.222.61v1.665a.643.643,0,0,1-.222.555.8.8,0,0,1-.61.277H5.826a.707.707,0,0,1-.61-.277A.712.712,0,0,1,4.994,17.478Z" transform="translate(1608 449)"/></svg>