<svg xmlns="http://www.w3.org/2000/svg" viewBox="9594 191 312.816 74"><defs><style>.a{fill:none;}.b{fill:#ddd;}.c{fill:#f2f2f2;}.d{fill:#bfbfbf;font-size:11px;font-family:HelveticaNeue, Helvetica Neue;}</style></defs><g transform="translate(9011)"><g transform="translate(-89)"><g transform="translate(672 191)"><path class="a" d="M11.027,72.324C5.313,72.324.5,68.841.5,64.706V8.118C.5,3.982,5.313.5,11.027.5H299.781c5.715,0,10.527,3.482,10.527,7.618V64.706c0,4.135-4.813,7.618-10.527,7.618Z" transform="translate(1.004 0.588)"/><path class="b" d="M300.785,2.176c5.113,0,9.024,2.829,9.024,6.529V65.294c0,3.7-3.91,6.529-9.024,6.529H12.031c-5.113,0-9.024-2.829-9.024-6.529V8.706c0-3.7,3.91-6.529,9.024-6.529H300.785m0-2.176H12.031C5.414,0,0,3.918,0,8.706V65.294C0,70.082,5.414,74,12.031,74H300.785c6.617,0,12.031-3.918,12.031-8.706V8.706C312.816,3.918,307.4,0,300.785,0Z"/></g><rect class="c" width="298" height="60" transform="translate(679 198)"/><text class="d" transform="translate(825.775 231.422)"><tspan x="-17.314" y="0">IMAGE</tspan></text></g></g></svg>