<svg xmlns="http://www.w3.org/2000/svg" viewBox="1893 1501 74 74"><defs><style>.a{fill:#fff;}.b{fill:#eee;}.c{fill:#ddd;}.d{fill:#bfbfbf;font-size:11px;font-family:HelveticaNeue, Helvetica Neue;}</style></defs><g transform="translate(1893 1501)"><path class="a" d="M5.4,73.608A4.947,4.947,0,0,1,.5,68.7V5.4A4.947,4.947,0,0,1,5.4.5H68.7a4.947,4.947,0,0,1,4.9,4.9V68.7a4.947,4.947,0,0,1-4.9,4.9Z" transform="translate(-0.054 -0.054)"/><path class="b" d="M5.892,70.084A.959.959,0,0,1,5,69.193V5.892A.959.959,0,0,1,5.892,5h63.3a.959.959,0,0,1,.892.892v63.3a.959.959,0,0,1-.892.892Z" transform="translate(-0.542 -0.542)"/><path class="c" d="M68.651.892a4.415,4.415,0,0,1,4.458,4.458v63.3a4.415,4.415,0,0,1-4.458,4.458H5.349A4.415,4.415,0,0,1,.892,68.651V5.349A4.415,4.415,0,0,1,5.349.892h63.3m0-.892H5.349A5.365,5.365,0,0,0,0,5.349v63.3A5.365,5.365,0,0,0,5.349,74h63.3A5.365,5.365,0,0,0,74,68.651V5.349A5.365,5.365,0,0,0,68.651,0Z"/><text class="d" transform="translate(19.775 39.422)"><tspan x="0" y="0">Image</tspan></text></g></svg>