<svg xmlns="http://www.w3.org/2000/svg" viewBox="2372 756 60 60"><defs><style>.a{fill:#00aec4;}.b{fill:#fff;}</style></defs><g transform="translate(2372 756)"><path class="a" d="M60,53a7.02,7.02,0,0,1-7,7H7a7.02,7.02,0,0,1-7-7V7A7.02,7.02,0,0,1,7,0H53a7.02,7.02,0,0,1,7,7Z"/><path class="b" d="M45,41.4V45H15V41.4L25,35V32.5c-.6,0-1.2-.6-1.7-1.9a8.839,8.839,0,0,1-.8-3.1v-5a7.1,7.1,0,0,1,2.2-5.3A7.1,7.1,0,0,1,30,15a7.1,7.1,0,0,1,5.3,2.2,7.1,7.1,0,0,1,2.2,5.3v5a8.349,8.349,0,0,1-.8,3.1c-.5,1.2-1.1,1.9-1.7,1.9V35Z"/></g></svg>