<svg xmlns="http://www.w3.org/2000/svg" viewBox="2138 756 60 60"><defs><style>.a{fill:#00aec4;}.b{fill:#fff;}</style></defs><g transform="translate(2138 756)"><path class="a" d="M60,53a7.02,7.02,0,0,1-7,7H7a7.02,7.02,0,0,1-7-7V7A7.02,7.02,0,0,1,7,0H53a7.02,7.02,0,0,1,7,7Z"/><path class="b" d="M20.7,44.8H18V15.2h2.7ZM44.9,28.7V15.2a6.443,6.443,0,0,1-2.7,3.1,5.905,5.905,0,0,1-3.4.8,17.15,17.15,0,0,1-3.7-.7c-1.3-.4-2.5-.7-3.7-1.1a14.711,14.711,0,0,0-3.4-.7,4.019,4.019,0,0,0-2.8.8,5.171,5.171,0,0,0-1.7,3.1V34a10.239,10.239,0,0,1,3.4-2.3,8.514,8.514,0,0,1,3.4-.5,19.093,19.093,0,0,1,3.3.6c1.1.3,2.2.6,3.2.8a15.262,15.262,0,0,0,3,.3,4.506,4.506,0,0,0,2.8-1.1A12.374,12.374,0,0,0,44.9,28.7Z"/></g></svg>