<svg xmlns="http://www.w3.org/2000/svg" viewBox="2600 756 60 60"><defs><style>.a{fill:#00aec4;}.b{fill:#fff;}</style></defs><g transform="translate(2266 693)"><g transform="translate(334 63)"><path class="a" d="M60,53a7.02,7.02,0,0,1-7,7H7a7.02,7.02,0,0,1-7-7V7A7.02,7.02,0,0,1,7,0H53a7.02,7.02,0,0,1,7,7Z"/><path class="b" d="M48.5,31l-.7,1.1a3.278,3.278,0,0,1-.6.8c-.3.4-.7,1-1.4,1.8s-1.3,1.6-2.1,2.4A22.664,22.664,0,0,1,41,39.6a21.937,21.937,0,0,1-3.3,2.3A18.039,18.039,0,0,1,34,43.6a14.7,14.7,0,0,1-4.1.7,12.19,12.19,0,0,1-4.1-.7,13.956,13.956,0,0,1-3.7-1.7,32.886,32.886,0,0,1-3.3-2.3,22.664,22.664,0,0,1-2.7-2.5L14,34.7c-.7-.8-1.1-1.4-1.4-1.8s-.4-.7-.6-.8L11.5,31l.7-1.1a3.278,3.278,0,0,1,.6-.8c.3-.4.7-1,1.4-1.8s1.3-1.6,2.1-2.4A22.664,22.664,0,0,1,19,22.4a21.937,21.937,0,0,1,3.3-2.3A18.039,18.039,0,0,1,26,18.4a14.7,14.7,0,0,1,4.1-.7,12.19,12.19,0,0,1,4.1.7,13.956,13.956,0,0,1,3.7,1.7,32.886,32.886,0,0,1,3.3,2.3,22.664,22.664,0,0,1,2.7,2.5L46,27.3c.7.8,1.1,1.4,1.4,1.8s.4.7.6.8Zm-22,9.5a10.3,10.3,0,0,0,3.5.6,10.733,10.733,0,0,0,3.5-.6,14.632,14.632,0,0,0,2.8-1.3,10.605,10.605,0,0,0,2.4-2c.8-.9,1.5-1.6,1.9-2.1a21.161,21.161,0,0,0,1.6-2.3c.7-1,1.1-1.6,1.3-1.8,0,0-.3-.4-.8-1a12.762,12.762,0,0,0-1.2-1.5A12.762,12.762,0,0,1,40.3,27c-.5-.6-1.1-1.2-1.6-1.8-.5-.5-1.1-1-1.6-1.5a8.3,8.3,0,0,1,1.4,4.6A7.79,7.79,0,0,1,36,34.2a8.165,8.165,0,0,1-5.9,2.5,7.79,7.79,0,0,1-5.9-2.5,8.165,8.165,0,0,1-2.5-5.9A7.578,7.578,0,0,1,23,23.9a40.149,40.149,0,0,0-6.3,7.2c.1.2.5.7,1.1,1.6a25.648,25.648,0,0,0,1.6,2.2,26.014,26.014,0,0,0,1.9,2.2,14.368,14.368,0,0,0,2.4,2.1A18.745,18.745,0,0,0,26.5,40.5Zm.3-14-3,3a10.835,10.835,0,0,0,4.3,5.3L31,31.9a7.75,7.75,0,0,1-2.1-2,19.875,19.875,0,0,1-1.6-2.4Z"/></g></g></svg>