<svg xmlns="http://www.w3.org/2000/svg" viewBox="1917 756 60 60"><defs><style>.a{fill:#00aec4;}.b{fill:#fff;}</style></defs><g transform="translate(1917 756)"><path class="a" d="M60,53a7.02,7.02,0,0,1-7,7H7a7.02,7.02,0,0,1-7-7V7A7.02,7.02,0,0,1,7,0H53a7.02,7.02,0,0,1,7,7Z"/><path class="b" d="M21,14.5a17.322,17.322,0,0,1,9-2.4,17.581,17.581,0,0,1,9,2.4A18.4,18.4,0,0,1,45.5,21a17.322,17.322,0,0,1,2.4,9,17.581,17.581,0,0,1-2.4,9A18.4,18.4,0,0,1,39,45.5a17.322,17.322,0,0,1-9,2.4,17.581,17.581,0,0,1-9-2.4A18.4,18.4,0,0,1,14.5,39a17.322,17.322,0,0,1-2.4-9,17.581,17.581,0,0,1,2.4-9A18.4,18.4,0,0,1,21,14.5Zm17.8,6.7A12.077,12.077,0,0,0,30,17.6a12.241,12.241,0,0,0-8.8,3.6A12.077,12.077,0,0,0,17.6,30a12.241,12.241,0,0,0,3.6,8.8A12.077,12.077,0,0,0,30,42.4a12.241,12.241,0,0,0,8.8-3.6A12.077,12.077,0,0,0,42.4,30,12.241,12.241,0,0,0,38.8,21.2ZM25.9,25.9A5.794,5.794,0,1,1,24.2,30,5.664,5.664,0,0,1,25.9,25.9Z"/></g></svg>